<?xml version="1.0" encoding="UTF-8" standalone="no"?><svg xmlns="http://www.w3.org/2000/svg" xmlns:xlink="http://www.w3.org/1999/xlink" contentStyleType="text/css" height="130px" preserveAspectRatio="none" style="width:164px;height:130px;background:#FFFFFF;" version="1.1" viewBox="0 0 164 130" width="164px" zoomAndPan="magnify"><defs/><g><!--MD5=[2069a8e3e9f8128158e554ebbe0d1b9d]
class DomainName--><g id="elem_DomainName"><rect codeLine="2" fill="#F1F1F1" height="109.1875" id="DomainName" rx="2.5" ry="2.5" style="stroke:#181818;stroke-width:0.5;" width="143" x="7" y="7"/><ellipse cx="30.1" cy="23" fill="#ADD1B2" rx="11" ry="11" style="stroke:#181818;stroke-width:1.0;"/><path d="M33.0688,28.6406 Q32.4906,28.9375 31.85,29.0781 Q31.2094,29.2344 30.5063,29.2344 Q28.0063,29.2344 26.6781,27.5938 Q25.3656,25.9375 25.3656,22.8125 Q25.3656,19.6875 26.6781,18.0313 Q28.0063,16.375 30.5063,16.375 Q31.2094,16.375 31.85,16.5313 Q32.5063,16.6875 33.0688,16.9844 L33.0688,19.7031 Q32.4438,19.125 31.85,18.8594 Q31.2563,18.5781 30.6313,18.5781 Q29.2875,18.5781 28.6,19.6563 Q27.9125,20.7188 27.9125,22.8125 Q27.9125,24.9063 28.6,25.9844 Q29.2875,27.0469 30.6313,27.0469 Q31.2563,27.0469 31.85,26.7813 Q32.4438,26.5 33.0688,25.9219 L33.0688,28.6406 Z " fill="#000000"/><text fill="#000000" font-family="sans-serif" font-size="14" lengthAdjust="spacing" textLength="93" x="45.9" y="27.8467">DomainName</text><line style="stroke:#181818;stroke-width:0.5;" x1="8" x2="149" y1="39" y2="39"/><ellipse cx="18" cy="50" fill="#84BE84" rx="3" ry="3" style="stroke:#038048;stroke-width:1.0;"/><text fill="#000000" font-family="sans-serif" font-size="14" lengthAdjust="spacing" textLength="92" x="27" y="55.9951">Value() String</text><ellipse cx="18" cy="66.2969" fill="#84BE84" rx="3" ry="3" style="stroke:#038048;stroke-width:1.0;"/><text fill="#000000" font-family="sans-serif" font-size="14" lengthAdjust="spacing" textLength="117" x="27" y="72.292">Equals() Boolean</text><ellipse cx="18" cy="102.8906" fill="#84BE84" rx="3" ry="3" style="stroke:#038048;stroke-width:1.0;"/><text fill="#000000" font-family="sans-serif" font-size="14" lengthAdjust="spacing" textLength="90" x="27" y="108.8857">(String value)</text><line style="stroke:#181818;stroke-width:1.0;" x1="8" x2="33.5" y1="87.7422" y2="87.7422"/><text fill="#000000" font-family="sans-serif" font-size="14" lengthAdjust="spacing" textLength="90" x="33.5" y="92.0889">Constructors</text><line style="stroke:#181818;stroke-width:1.0;" x1="123.5" x2="149" y1="87.7422" y2="87.7422"/></g><!--MD5=[a7726dcebd37aeed73518dcb8df0f0de]
@startuml

class DomainName {
+ Value() String
+ Equals() Boolean
- - Constructors - -
+ (String value)
}

@enduml

PlantUML version 1.2022.6(Tue Jun 21 17:34:49 UTC 2022)
(GPL source distribution)
Java Runtime: OpenJDK Runtime Environment
JVM: OpenJDK 64-Bit Server VM
Default Encoding: UTF-8
Language: en
Country: null
--></g></svg>