<?xml version="1.0" encoding="UTF-8" standalone="no"?><svg xmlns="http://www.w3.org/2000/svg" xmlns:xlink="http://www.w3.org/1999/xlink" contentStyleType="text/css" height="130px" preserveAspectRatio="none" style="width:164px;height:130px;background:#FFFFFF;" version="1.1" viewBox="0 0 164 130" width="164px" zoomAndPan="magnify"><defs/><g><!--MD5=[2069a8e3e9f8128158e554ebbe0d1b9d]
class DomainName--><g id="elem_DomainName"><rect codeLine="1" fill="#F1F1F1" height="109.1875" id="DomainName" rx="2.5" ry="2.5" style="stroke:#181818;stroke-width:0.5;" width="143" x="7" y="7"/><ellipse cx="28.75" cy="23" fill="#ADD1B2" rx="11" ry="11" style="stroke:#181818;stroke-width:1.0;"/><path d="M31.0938,18.6719 C30.1563,18.2344 29.5625,18.0938 28.6875,18.0938 C26.0625,18.0938 24.0625,20.1719 24.0625,22.8906 L24.0625,24.0156 C24.0625,26.5938 26.1719,28.4844 29.0625,28.4844 C30.2813,28.4844 31.4375,28.1875 32.1875,27.6406 C32.7656,27.2344 33.0938,26.7813 33.0938,26.3906 C33.0938,25.9375 32.7031,25.5469 32.2344,25.5469 C32.0156,25.5469 31.8125,25.625 31.625,25.8125 C31.1719,26.2969 31.1719,26.2969 30.9844,26.3906 C30.5625,26.6563 29.875,26.7813 29.1094,26.7813 C27.0625,26.7813 25.7656,25.6875 25.7656,23.9844 L25.7656,22.8906 C25.7656,21.1094 27.0156,19.7969 28.75,19.7969 C29.3281,19.7969 29.9375,19.9531 30.4063,20.2031 C30.8906,20.4844 31.0625,20.7031 31.1563,21.1094 C31.2188,21.5156 31.25,21.6406 31.3906,21.7656 C31.5313,21.9063 31.7656,22.0156 31.9844,22.0156 C32.25,22.0156 32.5156,21.875 32.6875,21.6563 C32.7969,21.5 32.8281,21.3125 32.8281,20.8906 L32.8281,19.4688 C32.8281,19.0313 32.8125,18.9063 32.7188,18.75 C32.5625,18.4844 32.2813,18.3438 31.9844,18.3438 C31.6875,18.3438 31.4844,18.4375 31.2656,18.75 L31.0938,18.6719 Z " fill="#000000"/><text fill="#000000" font-family="sans-serif" font-size="14" lengthAdjust="spacing" textLength="96" x="44.25" y="27.8467">DomainName</text><line style="stroke:#181818;stroke-width:0.5;" x1="8" x2="149" y1="39" y2="39"/><ellipse cx="18" cy="50" fill="#84BE84" rx="3" ry="3" style="stroke:#038048;stroke-width:1.0;"/><text fill="#000000" font-family="sans-serif" font-size="14" lengthAdjust="spacing" textLength="95" x="27" y="55.9951">Value() string</text><ellipse cx="18" cy="66.2969" fill="#84BE84" rx="3" ry="3" style="stroke:#038048;stroke-width:1.0;"/><text fill="#000000" font-family="sans-serif" font-size="14" lengthAdjust="spacing" textLength="117" x="27" y="72.292">Equals() boolean</text><ellipse cx="18" cy="102.8906" fill="#84BE84" rx="3" ry="3" style="stroke:#038048;stroke-width:1.0;"/><text fill="#000000" font-family="sans-serif" font-size="14" lengthAdjust="spacing" textLength="93" x="27" y="108.8857">(value string)</text><line style="stroke:#181818;stroke-width:1.0;" x1="8" x2="32" y1="87.7422" y2="87.7422"/><text fill="#000000" font-family="sans-serif" font-size="14" lengthAdjust="spacing" textLength="93" x="32" y="92.0889">Constructors</text><line style="stroke:#181818;stroke-width:1.0;" x1="125" x2="149" y1="87.7422" y2="87.7422"/></g><!--MD5=[87ff7eead893e0f62404d149a1d15018]
@startuml
class DomainName {
+ Value() string
+ Equals() boolean
- - Constructors - -
+ (value string)
}
@enduml

PlantUML version 1.2022.7beta2(Unknown compile time)
(GPL source distribution)
Java Runtime: Java(TM) SE Runtime Environment
JVM: Java HotSpot(TM) 64-Bit Server VM
Default Encoding: UTF-8
Language: en
Country: US
--></g></svg>