<?xml version="1.0" encoding="UTF-8" standalone="no"?><svg xmlns="http://www.w3.org/2000/svg" xmlns:xlink="http://www.w3.org/1999/xlink" contentStyleType="text/css" height="477px" preserveAspectRatio="none" style="width:565px;height:477px;background:#FFFFFF;" version="1.1" viewBox="0 0 565 477" width="565px" zoomAndPan="magnify"><defs/><g><!--MD5=[2069a8e3e9f8128158e554ebbe0d1b9d]
class DomainName--><g id="elem_DomainName"><rect codeLine="2" fill="#F1F1F1" height="109.1875" id="DomainName" rx="2.5" ry="2.5" style="stroke:#181818;stroke-width:0.5;" width="143" x="7" y="361"/><ellipse cx="30.1" cy="377" fill="#ADD1B2" rx="11" ry="11" style="stroke:#181818;stroke-width:1.0;"/><path d="M33.0688,382.6406 Q32.4906,382.9375 31.85,383.0781 Q31.2094,383.2344 30.5063,383.2344 Q28.0063,383.2344 26.6781,381.5938 Q25.3656,379.9375 25.3656,376.8125 Q25.3656,373.6875 26.6781,372.0313 Q28.0063,370.375 30.5063,370.375 Q31.2094,370.375 31.85,370.5313 Q32.5063,370.6875 33.0688,370.9844 L33.0688,373.7031 Q32.4438,373.125 31.85,372.8594 Q31.2563,372.5781 30.6313,372.5781 Q29.2875,372.5781 28.6,373.6563 Q27.9125,374.7188 27.9125,376.8125 Q27.9125,378.9063 28.6,379.9844 Q29.2875,381.0469 30.6313,381.0469 Q31.2563,381.0469 31.85,380.7813 Q32.4438,380.5 33.0688,379.9219 L33.0688,382.6406 Z " fill="#000000"/><text fill="#000000" font-family="sans-serif" font-size="14" lengthAdjust="spacing" textLength="93" x="45.9" y="381.8467">DomainName</text><line style="stroke:#181818;stroke-width:0.5;" x1="8" x2="149" y1="393" y2="393"/><ellipse cx="18" cy="404" fill="#84BE84" rx="3" ry="3" style="stroke:#038048;stroke-width:1.0;"/><text fill="#000000" font-family="sans-serif" font-size="14" lengthAdjust="spacing" textLength="92" x="27" y="409.9951">Value() String</text><ellipse cx="18" cy="420.2969" fill="#84BE84" rx="3" ry="3" style="stroke:#038048;stroke-width:1.0;"/><text fill="#000000" font-family="sans-serif" font-size="14" lengthAdjust="spacing" textLength="117" x="27" y="426.292">Equals() Boolean</text><ellipse cx="18" cy="456.8906" fill="#84BE84" rx="3" ry="3" style="stroke:#038048;stroke-width:1.0;"/><text fill="#000000" font-family="sans-serif" font-size="14" lengthAdjust="spacing" textLength="90" x="27" y="462.8857">(String value)</text><line style="stroke:#181818;stroke-width:1.0;" x1="8" x2="33.5" y1="441.7422" y2="441.7422"/><text fill="#000000" font-family="sans-serif" font-size="14" lengthAdjust="spacing" textLength="90" x="33.5" y="446.0889">Constructors</text><line style="stroke:#181818;stroke-width:1.0;" x1="123.5" x2="149" y1="441.7422" y2="441.7422"/></g><!--MD5=[69fca0bc48fa0f85c2fa33e8f0105ff1]
class TopLevelDomain--><g id="elem_TopLevelDomain"><rect codeLine="2" fill="#F1F1F1" height="109.1875" id="TopLevelDomain" rx="2.5" ry="2.5" style="stroke:#181818;stroke-width:0.5;" width="373" x="185" y="361"/><ellipse cx="309.75" cy="377" fill="#ADD1B2" rx="11" ry="11" style="stroke:#181818;stroke-width:1.0;"/><path d="M312.7188,382.6406 Q312.1406,382.9375 311.5,383.0781 Q310.8594,383.2344 310.1563,383.2344 Q307.6563,383.2344 306.3281,381.5938 Q305.0156,379.9375 305.0156,376.8125 Q305.0156,373.6875 306.3281,372.0313 Q307.6563,370.375 310.1563,370.375 Q310.8594,370.375 311.5,370.5313 Q312.1563,370.6875 312.7188,370.9844 L312.7188,373.7031 Q312.0938,373.125 311.5,372.8594 Q310.9063,372.5781 310.2813,372.5781 Q308.9375,372.5781 308.25,373.6563 Q307.5625,374.7188 307.5625,376.8125 Q307.5625,378.9063 308.25,379.9844 Q308.9375,381.0469 310.2813,381.0469 Q310.9063,381.0469 311.5,380.7813 Q312.0938,380.5 312.7188,379.9219 L312.7188,382.6406 Z " fill="#000000"/><text fill="#000000" font-family="sans-serif" font-size="14" lengthAdjust="spacing" textLength="115" x="330.25" y="381.8467">TopLevelDomain</text><line style="stroke:#181818;stroke-width:0.5;" x1="186" x2="557" y1="393" y2="393"/><ellipse cx="196" cy="404" fill="#84BE84" rx="3" ry="3" style="stroke:#038048;stroke-width:1.0;"/><text fill="#000000" font-family="sans-serif" font-size="14" lengthAdjust="spacing" textLength="92" x="205" y="409.9951">Value() String</text><ellipse cx="196" cy="420.2969" fill="#84BE84" rx="3" ry="3" style="stroke:#038048;stroke-width:1.0;"/><text fill="#000000" font-family="sans-serif" font-size="14" lengthAdjust="spacing" textLength="347" x="205" y="426.292">Equals(TopLevelDomain topLevelDomain) Boolean</text><ellipse cx="196" cy="456.8906" fill="#84BE84" rx="3" ry="3" style="stroke:#038048;stroke-width:1.0;"/><text fill="#000000" font-family="sans-serif" font-size="14" lengthAdjust="spacing" textLength="90" x="205" y="462.8857">(String value)</text><line style="stroke:#181818;stroke-width:1.0;" x1="186" x2="326.5" y1="441.7422" y2="441.7422"/><text fill="#000000" font-family="sans-serif" font-size="14" lengthAdjust="spacing" textLength="90" x="326.5" y="446.0889">Constructors</text><line style="stroke:#181818;stroke-width:1.0;" x1="416.5" x2="557" y1="441.7422" y2="441.7422"/></g><!--MD5=[d4b90ee477a1f9d0ce6dd92925bdeddd]
class RegisteredName--><g id="elem_RegisteredName"><rect codeLine="5" fill="#F1F1F1" height="125.4844" id="RegisteredName" rx="2.5" ry="2.5" style="stroke:#181818;stroke-width:0.5;" width="374" x="37.5" y="176"/><ellipse cx="162.25" cy="192" fill="#ADD1B2" rx="11" ry="11" style="stroke:#181818;stroke-width:1.0;"/><path d="M165.2188,197.6406 Q164.6406,197.9375 164,198.0781 Q163.3594,198.2344 162.6563,198.2344 Q160.1563,198.2344 158.8281,196.5938 Q157.5156,194.9375 157.5156,191.8125 Q157.5156,188.6875 158.8281,187.0313 Q160.1563,185.375 162.6563,185.375 Q163.3594,185.375 164,185.5313 Q164.6563,185.6875 165.2188,185.9844 L165.2188,188.7031 Q164.5938,188.125 164,187.8594 Q163.4063,187.5781 162.7813,187.5781 Q161.4375,187.5781 160.75,188.6563 Q160.0625,189.7188 160.0625,191.8125 Q160.0625,193.9063 160.75,194.9844 Q161.4375,196.0469 162.7813,196.0469 Q163.4063,196.0469 164,195.7813 Q164.5938,195.5 165.2188,194.9219 L165.2188,197.6406 Z " fill="#000000"/><text fill="#000000" font-family="sans-serif" font-size="14" lengthAdjust="spacing" textLength="116" x="182.75" y="196.8467">RegisteredName</text><line style="stroke:#181818;stroke-width:0.5;" x1="38.5" x2="410.5" y1="208" y2="208"/><ellipse cx="48.5" cy="219" fill="#84BE84" rx="3" ry="3" style="stroke:#038048;stroke-width:1.0;"/><text fill="#000000" font-family="sans-serif" font-size="14" lengthAdjust="spacing" textLength="92" x="57.5" y="224.9951">Value() String</text><ellipse cx="48.5" cy="235.2969" fill="#84BE84" rx="3" ry="3" style="stroke:#038048;stroke-width:1.0;"/><text fill="#000000" font-family="sans-serif" font-size="14" lengthAdjust="spacing" textLength="348" x="57.5" y="241.292">Equals(RegisteredName registeredName) Boolean</text><ellipse cx="48.5" cy="271.8906" fill="#84BE84" rx="3" ry="3" style="stroke:#038048;stroke-width:1.0;"/><text fill="#000000" font-family="sans-serif" font-size="14" lengthAdjust="spacing" textLength="308" x="57.5" y="277.8857">(String topLevelDomain, String domainName)</text><ellipse cx="48.5" cy="288.1875" fill="#84BE84" rx="3" ry="3" style="stroke:#038048;stroke-width:1.0;"/><text fill="#000000" font-family="sans-serif" font-size="14" lengthAdjust="spacing" textLength="165" x="57.5" y="294.1826">(String registeredName)</text><line style="stroke:#181818;stroke-width:1.0;" x1="38.5" x2="179.5" y1="256.7422" y2="256.7422"/><text fill="#000000" font-family="sans-serif" font-size="14" lengthAdjust="spacing" textLength="90" x="179.5" y="261.0889">Constructors</text><line style="stroke:#181818;stroke-width:1.0;" x1="269.5" x2="410.5" y1="256.7422" y2="256.7422"/></g><!--MD5=[c62846c0c9715c1d98dd5933e5913037]
class Host--><g id="elem_Host"><rect codeLine="4" fill="#F1F1F1" height="109.1875" id="Host" rx="2.5" ry="2.5" style="stroke:#181818;stroke-width:0.5;" width="253" x="98" y="7"/><ellipse cx="204.25" cy="23" fill="#ADD1B2" rx="11" ry="11" style="stroke:#181818;stroke-width:1.0;"/><path d="M207.2188,28.6406 Q206.6406,28.9375 206,29.0781 Q205.3594,29.2344 204.6563,29.2344 Q202.1563,29.2344 200.8281,27.5938 Q199.5156,25.9375 199.5156,22.8125 Q199.5156,19.6875 200.8281,18.0313 Q202.1563,16.375 204.6563,16.375 Q205.3594,16.375 206,16.5313 Q206.6563,16.6875 207.2188,16.9844 L207.2188,19.7031 Q206.5938,19.125 206,18.8594 Q205.4063,18.5781 204.7813,18.5781 Q203.4375,18.5781 202.75,19.6563 Q202.0625,20.7188 202.0625,22.8125 Q202.0625,24.9063 202.75,25.9844 Q203.4375,27.0469 204.7813,27.0469 Q205.4063,27.0469 206,26.7813 Q206.5938,26.5 207.2188,25.9219 L207.2188,28.6406 Z " fill="#000000"/><text fill="#000000" font-family="sans-serif" font-size="14" lengthAdjust="spacing" textLength="32" x="224.75" y="27.8467">Host</text><line style="stroke:#181818;stroke-width:0.5;" x1="99" x2="350" y1="39" y2="39"/><ellipse cx="109" cy="50" fill="#84BE84" rx="3" ry="3" style="stroke:#038048;stroke-width:1.0;"/><text fill="#000000" font-family="sans-serif" font-size="14" lengthAdjust="spacing" textLength="92" x="118" y="55.9951">Value() String</text><ellipse cx="109" cy="66.2969" fill="#84BE84" rx="3" ry="3" style="stroke:#038048;stroke-width:1.0;"/><text fill="#000000" font-family="sans-serif" font-size="14" lengthAdjust="spacing" textLength="120" x="118" y="72.292">HostType() String</text><text fill="#000000" font-family="sans-serif" font-size="14" lengthAdjust="spacing" textLength="241" x="104" y="108.8857">(RegisteredName registeredName)</text><line style="stroke:#181818;stroke-width:1.0;stroke-dasharray:1.0,2.0;" x1="99" x2="179.5" y1="87.7422" y2="87.7422"/><text fill="#000000" font-family="sans-serif" font-size="14" lengthAdjust="spacing" textLength="90" x="179.5" y="92.0889">Constructors</text><line style="stroke:#181818;stroke-width:1.0;stroke-dasharray:1.0,2.0;" x1="269.5" x2="350" y1="87.7422" y2="87.7422"/></g><!--MD5=[b00646fd0275e223e3287f24bd57ed44]
reverse link RegisteredName to DomainName--><g id="link_RegisteredName_DomainName"><path codeLine="13" d="M164.52,311.39 C150.71,327.95 136.25,345.28 123.21,360.91 " fill="none" id="RegisteredName-backto-DomainName" style="stroke:#181818;stroke-width:1.0;"/><polygon fill="#181818" points="173.03,301.2,166.1151,303.2457,165.3439,310.4154,172.2588,308.3697,173.03,301.2" style="stroke:#181818;stroke-width:1.0;"/></g><!--MD5=[6afd404dd84c088a6855a8d89a37bf91]
reverse link RegisteredName to TopLevelDomain--><g id="link_RegisteredName_TopLevelDomain"><path codeLine="14" d="M284.89,311.39 C298.8,327.95 313.36,345.28 326.49,360.91 " fill="none" id="RegisteredName-backto-TopLevelDomain" style="stroke:#181818;stroke-width:1.0;"/><polygon fill="#181818" points="276.33,301.2,277.1234,308.3673,284.0446,310.3916,283.2512,303.2243,276.33,301.2" style="stroke:#181818;stroke-width:1.0;"/></g><!--MD5=[3aa5873b04e5d5cb5aea68d6ff56e940]
reverse link Host to RegisteredName--><g id="link_Host_RegisteredName"><path codeLine="11" d="M224.5,129.52 C224.5,144.73 224.5,160.81 224.5,175.79 " fill="none" id="Host-backto-RegisteredName" style="stroke:#181818;stroke-width:1.0;"/><polygon fill="#181818" points="224.5,116.43,220.5,122.43,224.5,128.43,228.5,122.43,224.5,116.43" style="stroke:#181818;stroke-width:1.0;"/></g><!--MD5=[0d68070bb7425deecf2ce23dacaaa33a]
@startuml

!include registered-name.puml

class Host {
+ Value() String
+ HostType() String
.. Constructors ..
(RegisteredName registeredName)
}

Host *- - RegisteredName

@enduml

@startuml



class DomainName {
+ Value() String
+ Equals() Boolean
- - Constructors - -
+ (String value)
}


class TopLevelDomain {
+ Value() String
+ Equals(TopLevelDomain topLevelDomain) Boolean
- - Constructors - -
+ (String value)
}


class RegisteredName {
+ Value() String
+ Equals(RegisteredName registeredName) Boolean
- - Constructors - -
+ (String topLevelDomain, String domainName)
+ (String registeredName)
}

RegisteredName *- - DomainName
RegisteredName *- - TopLevelDomain


class Host {
+ Value() String
+ HostType() String
.. Constructors ..
(RegisteredName registeredName)
}

Host *- - RegisteredName

@enduml

PlantUML version 1.2022.6(Tue Jun 21 17:34:49 UTC 2022)
(GPL source distribution)
Java Runtime: OpenJDK Runtime Environment
JVM: OpenJDK 64-Bit Server VM
Default Encoding: UTF-8
Language: en
Country: null
--></g></svg>