<?xml version="1.0" encoding="UTF-8" standalone="no"?><svg xmlns="http://www.w3.org/2000/svg" xmlns:xlink="http://www.w3.org/1999/xlink" contentStyleType="text/css" height="477px" preserveAspectRatio="none" style="width:338px;height:477px;background:#FFFFFF;" version="1.1" viewBox="0 0 338 477" width="338px" zoomAndPan="magnify"><defs/><g><!--MD5=[2069a8e3e9f8128158e554ebbe0d1b9d]
class DomainName--><g id="elem_DomainName"><rect codeLine="2" fill="#F1F1F1" height="109.1875" id="DomainName" rx="2.5" ry="2.5" style="stroke:#181818;stroke-width:0.5;" width="142" x="7" y="361"/><ellipse cx="29.65" cy="377" fill="#ADD1B2" rx="11" ry="11" style="stroke:#181818;stroke-width:1.0;"/><path d="M32.6188,382.6406 Q32.0406,382.9375 31.4,383.0781 Q30.7594,383.2344 30.0563,383.2344 Q27.5563,383.2344 26.2281,381.5938 Q24.9156,379.9375 24.9156,376.8125 Q24.9156,373.6875 26.2281,372.0313 Q27.5563,370.375 30.0563,370.375 Q30.7594,370.375 31.4,370.5313 Q32.0563,370.6875 32.6188,370.9844 L32.6188,373.7031 Q31.9938,373.125 31.4,372.8594 Q30.8063,372.5781 30.1813,372.5781 Q28.8375,372.5781 28.15,373.6563 Q27.4625,374.7188 27.4625,376.8125 Q27.4625,378.9063 28.15,379.9844 Q28.8375,381.0469 30.1813,381.0469 Q30.8063,381.0469 31.4,380.7813 Q31.9938,380.5 32.6188,379.9219 L32.6188,382.6406 Z " fill="#000000"/><text fill="#000000" font-family="sans-serif" font-size="14" lengthAdjust="spacing" textLength="93" x="45.35" y="381.8467">DomainName</text><line style="stroke:#181818;stroke-width:0.5;" x1="8" x2="148" y1="393" y2="393"/><ellipse cx="18" cy="404" fill="#84BE84" rx="3" ry="3" style="stroke:#038048;stroke-width:1.0;"/><text fill="#000000" font-family="sans-serif" font-size="14" lengthAdjust="spacing" textLength="91" x="27" y="409.9951">Value() string</text><ellipse cx="18" cy="420.2969" fill="#84BE84" rx="3" ry="3" style="stroke:#038048;stroke-width:1.0;"/><text fill="#000000" font-family="sans-serif" font-size="14" lengthAdjust="spacing" textLength="116" x="27" y="426.292">Equals() boolean</text><ellipse cx="18" cy="456.8906" fill="#84BE84" rx="3" ry="3" style="stroke:#038048;stroke-width:1.0;"/><text fill="#000000" font-family="sans-serif" font-size="14" lengthAdjust="spacing" textLength="89" x="27" y="462.8857">(value string)</text><line style="stroke:#181818;stroke-width:1.0;" x1="8" x2="33" y1="441.7422" y2="441.7422"/><text fill="#000000" font-family="sans-serif" font-size="14" lengthAdjust="spacing" textLength="90" x="33" y="446.0889">Constructors</text><line style="stroke:#181818;stroke-width:1.0;" x1="123" x2="148" y1="441.7422" y2="441.7422"/></g><!--MD5=[69fca0bc48fa0f85c2fa33e8f0105ff1]
class TopLevelDomain--><g id="elem_TopLevelDomain"><rect codeLine="2" fill="#F1F1F1" height="109.1875" id="TopLevelDomain" rx="2.5" ry="2.5" style="stroke:#181818;stroke-width:0.5;" width="147" x="184.5" y="361"/><ellipse cx="199.5" cy="377" fill="#ADD1B2" rx="11" ry="11" style="stroke:#181818;stroke-width:1.0;"/><path d="M202.4688,382.6406 Q201.8906,382.9375 201.25,383.0781 Q200.6094,383.2344 199.9063,383.2344 Q197.4063,383.2344 196.0781,381.5938 Q194.7656,379.9375 194.7656,376.8125 Q194.7656,373.6875 196.0781,372.0313 Q197.4063,370.375 199.9063,370.375 Q200.6094,370.375 201.25,370.5313 Q201.9063,370.6875 202.4688,370.9844 L202.4688,373.7031 Q201.8438,373.125 201.25,372.8594 Q200.6563,372.5781 200.0313,372.5781 Q198.6875,372.5781 198,373.6563 Q197.3125,374.7188 197.3125,376.8125 Q197.3125,378.9063 198,379.9844 Q198.6875,381.0469 200.0313,381.0469 Q200.6563,381.0469 201.25,380.7813 Q201.8438,380.5 202.4688,379.9219 L202.4688,382.6406 Z " fill="#000000"/><text fill="#000000" font-family="sans-serif" font-size="14" lengthAdjust="spacing" textLength="115" x="213.5" y="381.8467">TopLevelDomain</text><line style="stroke:#181818;stroke-width:0.5;" x1="185.5" x2="330.5" y1="393" y2="393"/><ellipse cx="195.5" cy="404" fill="#84BE84" rx="3" ry="3" style="stroke:#038048;stroke-width:1.0;"/><text fill="#000000" font-family="sans-serif" font-size="14" lengthAdjust="spacing" textLength="91" x="204.5" y="409.9951">Value() string</text><ellipse cx="195.5" cy="420.2969" fill="#84BE84" rx="3" ry="3" style="stroke:#038048;stroke-width:1.0;"/><text fill="#000000" font-family="sans-serif" font-size="14" lengthAdjust="spacing" textLength="116" x="204.5" y="426.292">Equals() boolean</text><ellipse cx="195.5" cy="456.8906" fill="#84BE84" rx="3" ry="3" style="stroke:#038048;stroke-width:1.0;"/><text fill="#000000" font-family="sans-serif" font-size="14" lengthAdjust="spacing" textLength="89" x="204.5" y="462.8857">(value string)</text><line style="stroke:#181818;stroke-width:1.0;" x1="185.5" x2="213" y1="441.7422" y2="441.7422"/><text fill="#000000" font-family="sans-serif" font-size="14" lengthAdjust="spacing" textLength="90" x="213" y="446.0889">Constructors</text><line style="stroke:#181818;stroke-width:1.0;" x1="303" x2="330.5" y1="441.7422" y2="441.7422"/></g><!--MD5=[d4b90ee477a1f9d0ce6dd92925bdeddd]
class RegisteredName--><g id="elem_RegisteredName"><rect codeLine="5" fill="#F1F1F1" height="125.4844" id="RegisteredName" rx="2.5" ry="2.5" style="stroke:#181818;stroke-width:0.5;" width="238" x="49" y="176"/><ellipse cx="105.75" cy="192" fill="#ADD1B2" rx="11" ry="11" style="stroke:#181818;stroke-width:1.0;"/><path d="M108.7188,197.6406 Q108.1406,197.9375 107.5,198.0781 Q106.8594,198.2344 106.1563,198.2344 Q103.6563,198.2344 102.3281,196.5938 Q101.0156,194.9375 101.0156,191.8125 Q101.0156,188.6875 102.3281,187.0313 Q103.6563,185.375 106.1563,185.375 Q106.8594,185.375 107.5,185.5313 Q108.1563,185.6875 108.7188,185.9844 L108.7188,188.7031 Q108.0938,188.125 107.5,187.8594 Q106.9063,187.5781 106.2813,187.5781 Q104.9375,187.5781 104.25,188.6563 Q103.5625,189.7188 103.5625,191.8125 Q103.5625,193.9063 104.25,194.9844 Q104.9375,196.0469 106.2813,196.0469 Q106.9063,196.0469 107.5,195.7813 Q108.0938,195.5 108.7188,194.9219 L108.7188,197.6406 Z " fill="#000000"/><text fill="#000000" font-family="sans-serif" font-size="14" lengthAdjust="spacing" textLength="116" x="126.25" y="196.8467">RegisteredName</text><line style="stroke:#181818;stroke-width:0.5;" x1="50" x2="286" y1="208" y2="208"/><ellipse cx="60" cy="219" fill="#84BE84" rx="3" ry="3" style="stroke:#038048;stroke-width:1.0;"/><text fill="#000000" font-family="sans-serif" font-size="14" lengthAdjust="spacing" textLength="91" x="69" y="224.9951">Value() string</text><ellipse cx="60" cy="235.2969" fill="#84BE84" rx="3" ry="3" style="stroke:#038048;stroke-width:1.0;"/><text fill="#000000" font-family="sans-serif" font-size="14" lengthAdjust="spacing" textLength="116" x="69" y="241.292">Equals() boolean</text><ellipse cx="60" cy="271.8906" fill="#84BE84" rx="3" ry="3" style="stroke:#038048;stroke-width:1.0;"/><text fill="#000000" font-family="sans-serif" font-size="14" lengthAdjust="spacing" textLength="212" x="69" y="277.8857">(tld string, domainName string)</text><ellipse cx="60" cy="288.1875" fill="#84BE84" rx="3" ry="3" style="stroke:#038048;stroke-width:1.0;"/><text fill="#000000" font-family="sans-serif" font-size="14" lengthAdjust="spacing" textLength="164" x="69" y="294.1826">(registeredName string)</text><line style="stroke:#181818;stroke-width:1.0;" x1="50" x2="123" y1="256.7422" y2="256.7422"/><text fill="#000000" font-family="sans-serif" font-size="14" lengthAdjust="spacing" textLength="90" x="123" y="261.0889">Constructors</text><line style="stroke:#181818;stroke-width:1.0;" x1="213" x2="286" y1="256.7422" y2="256.7422"/></g><!--MD5=[c62846c0c9715c1d98dd5933e5913037]
class Host--><g id="elem_Host"><rect codeLine="4" fill="#F1F1F1" height="109.1875" id="Host" rx="2.5" ry="2.5" style="stroke:#181818;stroke-width:0.5;" width="145" x="95.5" y="7"/><ellipse cx="147.75" cy="23" fill="#ADD1B2" rx="11" ry="11" style="stroke:#181818;stroke-width:1.0;"/><path d="M150.7188,28.6406 Q150.1406,28.9375 149.5,29.0781 Q148.8594,29.2344 148.1563,29.2344 Q145.6563,29.2344 144.3281,27.5938 Q143.0156,25.9375 143.0156,22.8125 Q143.0156,19.6875 144.3281,18.0313 Q145.6563,16.375 148.1563,16.375 Q148.8594,16.375 149.5,16.5313 Q150.1563,16.6875 150.7188,16.9844 L150.7188,19.7031 Q150.0938,19.125 149.5,18.8594 Q148.9063,18.5781 148.2813,18.5781 Q146.9375,18.5781 146.25,19.6563 Q145.5625,20.7188 145.5625,22.8125 Q145.5625,24.9063 146.25,25.9844 Q146.9375,27.0469 148.2813,27.0469 Q148.9063,27.0469 149.5,26.7813 Q150.0938,26.5 150.7188,25.9219 L150.7188,28.6406 Z " fill="#000000"/><text fill="#000000" font-family="sans-serif" font-size="14" lengthAdjust="spacing" textLength="32" x="168.25" y="27.8467">Host</text><line style="stroke:#181818;stroke-width:0.5;" x1="96.5" x2="239.5" y1="39" y2="39"/><ellipse cx="106.5" cy="50" fill="#84BE84" rx="3" ry="3" style="stroke:#038048;stroke-width:1.0;"/><text fill="#000000" font-family="sans-serif" font-size="14" lengthAdjust="spacing" textLength="91" x="115.5" y="55.9951">Value() string</text><ellipse cx="106.5" cy="66.2969" fill="#84BE84" rx="3" ry="3" style="stroke:#038048;stroke-width:1.0;"/><text fill="#000000" font-family="sans-serif" font-size="14" lengthAdjust="spacing" textLength="119" x="115.5" y="72.292">HostType() string</text><text fill="#000000" font-family="sans-serif" font-size="14" lengthAdjust="spacing" textLength="126" x="101.5" y="108.8857">(RegisteredName)</text><line style="stroke:#181818;stroke-width:1.0;stroke-dasharray:1.0,2.0;" x1="96.5" x2="123" y1="87.7422" y2="87.7422"/><text fill="#000000" font-family="sans-serif" font-size="14" lengthAdjust="spacing" textLength="90" x="123" y="92.0889">Constructors</text><line style="stroke:#181818;stroke-width:1.0;stroke-dasharray:1.0,2.0;" x1="213" x2="239.5" y1="87.7422" y2="87.7422"/></g><!--MD5=[b00646fd0275e223e3287f24bd57ed44]
reverse link RegisteredName to DomainName--><g id="link_RegisteredName_DomainName"><path codeLine="13" d="M130.3,312.8 C122.01,328.93 113.37,345.73 105.56,360.91 " fill="none" id="RegisteredName-backto-DomainName" style="stroke:#181818;stroke-width:1.0;"/><polygon fill="#181818" points="136.27,301.2,129.969,304.7067,130.7824,311.8718,137.0835,308.3651,136.27,301.2" style="stroke:#181818;stroke-width:1.0;"/></g><!--MD5=[6afd404dd84c088a6855a8d89a37bf91]
reverse link RegisteredName to TopLevelDomain--><g id="link_RegisteredName_TopLevelDomain"><path codeLine="14" d="M205.7,312.8 C213.99,328.93 222.63,345.73 230.44,360.91 " fill="none" id="RegisteredName-backto-TopLevelDomain" style="stroke:#181818;stroke-width:1.0;"/><polygon fill="#181818" points="199.73,301.2,198.9165,308.3651,205.2176,311.8718,206.031,304.7067,199.73,301.2" style="stroke:#181818;stroke-width:1.0;"/></g><!--MD5=[3aa5873b04e5d5cb5aea68d6ff56e940]
reverse link Host to RegisteredName--><g id="link_Host_RegisteredName"><path codeLine="11" d="M168,129.52 C168,144.73 168,160.81 168,175.79 " fill="none" id="Host-backto-RegisteredName" style="stroke:#181818;stroke-width:1.0;"/><polygon fill="#181818" points="168,116.43,164,122.43,168,128.43,172,122.43,168,116.43" style="stroke:#181818;stroke-width:1.0;"/></g><!--MD5=[390cb5804ad2eea944a52a2f7dc31305]
@startuml

!include registered-name.puml

class Host {
+ Value() string
+ HostType() string
.. Constructors ..
(RegisteredName)
}

Host *- - RegisteredName

@enduml

@startuml



class DomainName {
+ Value() string
+ Equals() boolean
- - Constructors - -
+ (value string)
}


class TopLevelDomain {
+ Value() string
+ Equals() boolean
- - Constructors - -
+ (value string)
}


class RegisteredName {
+ Value() string
+ Equals() boolean
- - Constructors - -
+ (tld string, domainName string)
+ (registeredName string)
}

RegisteredName *- - DomainName
RegisteredName *- - TopLevelDomain


class Host {
+ Value() string
+ HostType() string
.. Constructors ..
(RegisteredName)
}

Host *- - RegisteredName

@enduml

PlantUML version 1.2022.6(Tue Jun 21 17:34:49 UTC 2022)
(GPL source distribution)
Java Runtime: OpenJDK Runtime Environment
JVM: OpenJDK 64-Bit Server VM
Default Encoding: UTF-8
Language: en
Country: null
--></g></svg>