<?xml version="1.0" encoding="UTF-8" standalone="no"?><svg xmlns="http://www.w3.org/2000/svg" xmlns:xlink="http://www.w3.org/1999/xlink" contentStyleType="text/css" height="308px" preserveAspectRatio="none" style="width:338px;height:308px;background:#FFFFFF;" version="1.1" viewBox="0 0 338 308" width="338px" zoomAndPan="magnify"><defs/><g><!--MD5=[2069a8e3e9f8128158e554ebbe0d1b9d]
class DomainName--><g id="elem_DomainName"><rect codeLine="2" fill="#F1F1F1" height="109.1875" id="DomainName" rx="2.5" ry="2.5" style="stroke:#181818;stroke-width:0.5;" width="142" x="7" y="192"/><ellipse cx="29.65" cy="208" fill="#ADD1B2" rx="11" ry="11" style="stroke:#181818;stroke-width:1.0;"/><path d="M32.6188,213.6406 Q32.0406,213.9375 31.4,214.0781 Q30.7594,214.2344 30.0563,214.2344 Q27.5563,214.2344 26.2281,212.5938 Q24.9156,210.9375 24.9156,207.8125 Q24.9156,204.6875 26.2281,203.0313 Q27.5563,201.375 30.0563,201.375 Q30.7594,201.375 31.4,201.5313 Q32.0563,201.6875 32.6188,201.9844 L32.6188,204.7031 Q31.9938,204.125 31.4,203.8594 Q30.8063,203.5781 30.1813,203.5781 Q28.8375,203.5781 28.15,204.6563 Q27.4625,205.7188 27.4625,207.8125 Q27.4625,209.9063 28.15,210.9844 Q28.8375,212.0469 30.1813,212.0469 Q30.8063,212.0469 31.4,211.7813 Q31.9938,211.5 32.6188,210.9219 L32.6188,213.6406 Z " fill="#000000"/><text fill="#000000" font-family="sans-serif" font-size="14" lengthAdjust="spacing" textLength="93" x="45.35" y="212.8467">DomainName</text><line style="stroke:#181818;stroke-width:0.5;" x1="8" x2="148" y1="224" y2="224"/><ellipse cx="18" cy="235" fill="#84BE84" rx="3" ry="3" style="stroke:#038048;stroke-width:1.0;"/><text fill="#000000" font-family="sans-serif" font-size="14" lengthAdjust="spacing" textLength="91" x="27" y="240.9951">Value() string</text><ellipse cx="18" cy="251.2969" fill="#84BE84" rx="3" ry="3" style="stroke:#038048;stroke-width:1.0;"/><text fill="#000000" font-family="sans-serif" font-size="14" lengthAdjust="spacing" textLength="116" x="27" y="257.292">Equals() boolean</text><ellipse cx="18" cy="287.8906" fill="#84BE84" rx="3" ry="3" style="stroke:#038048;stroke-width:1.0;"/><text fill="#000000" font-family="sans-serif" font-size="14" lengthAdjust="spacing" textLength="89" x="27" y="293.8857">(value string)</text><line style="stroke:#181818;stroke-width:1.0;" x1="8" x2="33" y1="272.7422" y2="272.7422"/><text fill="#000000" font-family="sans-serif" font-size="14" lengthAdjust="spacing" textLength="90" x="33" y="277.0889">Constructors</text><line style="stroke:#181818;stroke-width:1.0;" x1="123" x2="148" y1="272.7422" y2="272.7422"/></g><!--MD5=[69fca0bc48fa0f85c2fa33e8f0105ff1]
class TopLevelDomain--><g id="elem_TopLevelDomain"><rect codeLine="2" fill="#F1F1F1" height="109.1875" id="TopLevelDomain" rx="2.5" ry="2.5" style="stroke:#181818;stroke-width:0.5;" width="147" x="184.5" y="192"/><ellipse cx="199.5" cy="208" fill="#ADD1B2" rx="11" ry="11" style="stroke:#181818;stroke-width:1.0;"/><path d="M202.4688,213.6406 Q201.8906,213.9375 201.25,214.0781 Q200.6094,214.2344 199.9063,214.2344 Q197.4063,214.2344 196.0781,212.5938 Q194.7656,210.9375 194.7656,207.8125 Q194.7656,204.6875 196.0781,203.0313 Q197.4063,201.375 199.9063,201.375 Q200.6094,201.375 201.25,201.5313 Q201.9063,201.6875 202.4688,201.9844 L202.4688,204.7031 Q201.8438,204.125 201.25,203.8594 Q200.6563,203.5781 200.0313,203.5781 Q198.6875,203.5781 198,204.6563 Q197.3125,205.7188 197.3125,207.8125 Q197.3125,209.9063 198,210.9844 Q198.6875,212.0469 200.0313,212.0469 Q200.6563,212.0469 201.25,211.7813 Q201.8438,211.5 202.4688,210.9219 L202.4688,213.6406 Z " fill="#000000"/><text fill="#000000" font-family="sans-serif" font-size="14" lengthAdjust="spacing" textLength="115" x="213.5" y="212.8467">TopLevelDomain</text><line style="stroke:#181818;stroke-width:0.5;" x1="185.5" x2="330.5" y1="224" y2="224"/><ellipse cx="195.5" cy="235" fill="#84BE84" rx="3" ry="3" style="stroke:#038048;stroke-width:1.0;"/><text fill="#000000" font-family="sans-serif" font-size="14" lengthAdjust="spacing" textLength="91" x="204.5" y="240.9951">Value() string</text><ellipse cx="195.5" cy="251.2969" fill="#84BE84" rx="3" ry="3" style="stroke:#038048;stroke-width:1.0;"/><text fill="#000000" font-family="sans-serif" font-size="14" lengthAdjust="spacing" textLength="116" x="204.5" y="257.292">Equals() boolean</text><ellipse cx="195.5" cy="287.8906" fill="#84BE84" rx="3" ry="3" style="stroke:#038048;stroke-width:1.0;"/><text fill="#000000" font-family="sans-serif" font-size="14" lengthAdjust="spacing" textLength="89" x="204.5" y="293.8857">(value string)</text><line style="stroke:#181818;stroke-width:1.0;" x1="185.5" x2="213" y1="272.7422" y2="272.7422"/><text fill="#000000" font-family="sans-serif" font-size="14" lengthAdjust="spacing" textLength="90" x="213" y="277.0889">Constructors</text><line style="stroke:#181818;stroke-width:1.0;" x1="303" x2="330.5" y1="272.7422" y2="272.7422"/></g><!--MD5=[d4b90ee477a1f9d0ce6dd92925bdeddd]
class RegisteredName--><g id="elem_RegisteredName"><rect codeLine="5" fill="#F1F1F1" height="125.4844" id="RegisteredName" rx="2.5" ry="2.5" style="stroke:#181818;stroke-width:0.5;" width="238" x="49" y="7"/><ellipse cx="105.75" cy="23" fill="#ADD1B2" rx="11" ry="11" style="stroke:#181818;stroke-width:1.0;"/><path d="M108.7188,28.6406 Q108.1406,28.9375 107.5,29.0781 Q106.8594,29.2344 106.1563,29.2344 Q103.6563,29.2344 102.3281,27.5938 Q101.0156,25.9375 101.0156,22.8125 Q101.0156,19.6875 102.3281,18.0313 Q103.6563,16.375 106.1563,16.375 Q106.8594,16.375 107.5,16.5313 Q108.1563,16.6875 108.7188,16.9844 L108.7188,19.7031 Q108.0938,19.125 107.5,18.8594 Q106.9063,18.5781 106.2813,18.5781 Q104.9375,18.5781 104.25,19.6563 Q103.5625,20.7188 103.5625,22.8125 Q103.5625,24.9063 104.25,25.9844 Q104.9375,27.0469 106.2813,27.0469 Q106.9063,27.0469 107.5,26.7813 Q108.0938,26.5 108.7188,25.9219 L108.7188,28.6406 Z " fill="#000000"/><text fill="#000000" font-family="sans-serif" font-size="14" lengthAdjust="spacing" textLength="116" x="126.25" y="27.8467">RegisteredName</text><line style="stroke:#181818;stroke-width:0.5;" x1="50" x2="286" y1="39" y2="39"/><ellipse cx="60" cy="50" fill="#84BE84" rx="3" ry="3" style="stroke:#038048;stroke-width:1.0;"/><text fill="#000000" font-family="sans-serif" font-size="14" lengthAdjust="spacing" textLength="91" x="69" y="55.9951">Value() string</text><ellipse cx="60" cy="66.2969" fill="#84BE84" rx="3" ry="3" style="stroke:#038048;stroke-width:1.0;"/><text fill="#000000" font-family="sans-serif" font-size="14" lengthAdjust="spacing" textLength="116" x="69" y="72.292">Equals() boolean</text><ellipse cx="60" cy="102.8906" fill="#84BE84" rx="3" ry="3" style="stroke:#038048;stroke-width:1.0;"/><text fill="#000000" font-family="sans-serif" font-size="14" lengthAdjust="spacing" textLength="212" x="69" y="108.8857">(tld string, domainName string)</text><ellipse cx="60" cy="119.1875" fill="#84BE84" rx="3" ry="3" style="stroke:#038048;stroke-width:1.0;"/><text fill="#000000" font-family="sans-serif" font-size="14" lengthAdjust="spacing" textLength="164" x="69" y="125.1826">(registeredName string)</text><line style="stroke:#181818;stroke-width:1.0;" x1="50" x2="123" y1="87.7422" y2="87.7422"/><text fill="#000000" font-family="sans-serif" font-size="14" lengthAdjust="spacing" textLength="90" x="123" y="92.0889">Constructors</text><line style="stroke:#181818;stroke-width:1.0;" x1="213" x2="286" y1="87.7422" y2="87.7422"/></g><!--MD5=[b00646fd0275e223e3287f24bd57ed44]
reverse link RegisteredName to DomainName--><g id="link_RegisteredName_DomainName"><path codeLine="13" d="M130.3,143.8 C122.01,159.93 113.37,176.73 105.56,191.91 " fill="none" id="RegisteredName-backto-DomainName" style="stroke:#181818;stroke-width:1.0;"/><polygon fill="#181818" points="136.27,132.2,129.969,135.7067,130.7824,142.8718,137.0835,139.3651,136.27,132.2" style="stroke:#181818;stroke-width:1.0;"/></g><!--MD5=[6afd404dd84c088a6855a8d89a37bf91]
reverse link RegisteredName to TopLevelDomain--><g id="link_RegisteredName_TopLevelDomain"><path codeLine="14" d="M205.7,143.8 C213.99,159.93 222.63,176.73 230.44,191.91 " fill="none" id="RegisteredName-backto-TopLevelDomain" style="stroke:#181818;stroke-width:1.0;"/><polygon fill="#181818" points="199.73,132.2,198.9165,139.3651,205.2176,142.8718,206.031,135.7067,199.73,132.2" style="stroke:#181818;stroke-width:1.0;"/></g><!--MD5=[c5ec867464e74d481c85a96155718d1c]
@startuml

!include domain-name.puml
!include top-level-domain.puml

class RegisteredName {
+ Value() string
+ Equals() boolean
- - Constructors - -
+ (tld string, domainName string)
+ (registeredName string)
}

RegisteredName *- - DomainName
RegisteredName *- - TopLevelDomain

@enduml

@startuml


class DomainName {
+ Value() string
+ Equals() boolean
- - Constructors - -
+ (value string)
}


class TopLevelDomain {
+ Value() string
+ Equals() boolean
- - Constructors - -
+ (value string)
}


class RegisteredName {
+ Value() string
+ Equals() boolean
- - Constructors - -
+ (tld string, domainName string)
+ (registeredName string)
}

RegisteredName *- - DomainName
RegisteredName *- - TopLevelDomain

@enduml

PlantUML version 1.2022.6(Tue Jun 21 17:34:49 UTC 2022)
(GPL source distribution)
Java Runtime: OpenJDK Runtime Environment
JVM: OpenJDK 64-Bit Server VM
Default Encoding: UTF-8
Language: en
Country: null
--></g></svg>