<?xml version="1.0" encoding="UTF-8" standalone="no"?><svg xmlns="http://www.w3.org/2000/svg" xmlns:xlink="http://www.w3.org/1999/xlink" contentStyleType="text/css" height="308px" preserveAspectRatio="none" style="width:565px;height:308px;background:#FFFFFF;" version="1.1" viewBox="0 0 565 308" width="565px" zoomAndPan="magnify"><defs/><g><!--MD5=[2069a8e3e9f8128158e554ebbe0d1b9d]
class DomainName--><g id="elem_DomainName"><rect codeLine="2" fill="#F1F1F1" height="109.1875" id="DomainName" rx="2.5" ry="2.5" style="stroke:#181818;stroke-width:0.5;" width="143" x="7" y="192"/><ellipse cx="30.1" cy="208" fill="#ADD1B2" rx="11" ry="11" style="stroke:#181818;stroke-width:1.0;"/><path d="M33.0688,213.6406 Q32.4906,213.9375 31.85,214.0781 Q31.2094,214.2344 30.5063,214.2344 Q28.0063,214.2344 26.6781,212.5938 Q25.3656,210.9375 25.3656,207.8125 Q25.3656,204.6875 26.6781,203.0313 Q28.0063,201.375 30.5063,201.375 Q31.2094,201.375 31.85,201.5313 Q32.5063,201.6875 33.0688,201.9844 L33.0688,204.7031 Q32.4438,204.125 31.85,203.8594 Q31.2563,203.5781 30.6313,203.5781 Q29.2875,203.5781 28.6,204.6563 Q27.9125,205.7188 27.9125,207.8125 Q27.9125,209.9063 28.6,210.9844 Q29.2875,212.0469 30.6313,212.0469 Q31.2563,212.0469 31.85,211.7813 Q32.4438,211.5 33.0688,210.9219 L33.0688,213.6406 Z " fill="#000000"/><text fill="#000000" font-family="sans-serif" font-size="14" lengthAdjust="spacing" textLength="93" x="45.9" y="212.8467">DomainName</text><line style="stroke:#181818;stroke-width:0.5;" x1="8" x2="149" y1="224" y2="224"/><ellipse cx="18" cy="235" fill="#84BE84" rx="3" ry="3" style="stroke:#038048;stroke-width:1.0;"/><text fill="#000000" font-family="sans-serif" font-size="14" lengthAdjust="spacing" textLength="92" x="27" y="240.9951">Value() String</text><ellipse cx="18" cy="251.2969" fill="#84BE84" rx="3" ry="3" style="stroke:#038048;stroke-width:1.0;"/><text fill="#000000" font-family="sans-serif" font-size="14" lengthAdjust="spacing" textLength="117" x="27" y="257.292">Equals() Boolean</text><ellipse cx="18" cy="287.8906" fill="#84BE84" rx="3" ry="3" style="stroke:#038048;stroke-width:1.0;"/><text fill="#000000" font-family="sans-serif" font-size="14" lengthAdjust="spacing" textLength="90" x="27" y="293.8857">(String value)</text><line style="stroke:#181818;stroke-width:1.0;" x1="8" x2="33.5" y1="272.7422" y2="272.7422"/><text fill="#000000" font-family="sans-serif" font-size="14" lengthAdjust="spacing" textLength="90" x="33.5" y="277.0889">Constructors</text><line style="stroke:#181818;stroke-width:1.0;" x1="123.5" x2="149" y1="272.7422" y2="272.7422"/></g><!--MD5=[69fca0bc48fa0f85c2fa33e8f0105ff1]
class TopLevelDomain--><g id="elem_TopLevelDomain"><rect codeLine="2" fill="#F1F1F1" height="109.1875" id="TopLevelDomain" rx="2.5" ry="2.5" style="stroke:#181818;stroke-width:0.5;" width="373" x="185" y="192"/><ellipse cx="309.75" cy="208" fill="#ADD1B2" rx="11" ry="11" style="stroke:#181818;stroke-width:1.0;"/><path d="M312.7188,213.6406 Q312.1406,213.9375 311.5,214.0781 Q310.8594,214.2344 310.1563,214.2344 Q307.6563,214.2344 306.3281,212.5938 Q305.0156,210.9375 305.0156,207.8125 Q305.0156,204.6875 306.3281,203.0313 Q307.6563,201.375 310.1563,201.375 Q310.8594,201.375 311.5,201.5313 Q312.1563,201.6875 312.7188,201.9844 L312.7188,204.7031 Q312.0938,204.125 311.5,203.8594 Q310.9063,203.5781 310.2813,203.5781 Q308.9375,203.5781 308.25,204.6563 Q307.5625,205.7188 307.5625,207.8125 Q307.5625,209.9063 308.25,210.9844 Q308.9375,212.0469 310.2813,212.0469 Q310.9063,212.0469 311.5,211.7813 Q312.0938,211.5 312.7188,210.9219 L312.7188,213.6406 Z " fill="#000000"/><text fill="#000000" font-family="sans-serif" font-size="14" lengthAdjust="spacing" textLength="115" x="330.25" y="212.8467">TopLevelDomain</text><line style="stroke:#181818;stroke-width:0.5;" x1="186" x2="557" y1="224" y2="224"/><ellipse cx="196" cy="235" fill="#84BE84" rx="3" ry="3" style="stroke:#038048;stroke-width:1.0;"/><text fill="#000000" font-family="sans-serif" font-size="14" lengthAdjust="spacing" textLength="92" x="205" y="240.9951">Value() String</text><ellipse cx="196" cy="251.2969" fill="#84BE84" rx="3" ry="3" style="stroke:#038048;stroke-width:1.0;"/><text fill="#000000" font-family="sans-serif" font-size="14" lengthAdjust="spacing" textLength="347" x="205" y="257.292">Equals(TopLevelDomain topLevelDomain) Boolean</text><ellipse cx="196" cy="287.8906" fill="#84BE84" rx="3" ry="3" style="stroke:#038048;stroke-width:1.0;"/><text fill="#000000" font-family="sans-serif" font-size="14" lengthAdjust="spacing" textLength="90" x="205" y="293.8857">(String value)</text><line style="stroke:#181818;stroke-width:1.0;" x1="186" x2="326.5" y1="272.7422" y2="272.7422"/><text fill="#000000" font-family="sans-serif" font-size="14" lengthAdjust="spacing" textLength="90" x="326.5" y="277.0889">Constructors</text><line style="stroke:#181818;stroke-width:1.0;" x1="416.5" x2="557" y1="272.7422" y2="272.7422"/></g><!--MD5=[d4b90ee477a1f9d0ce6dd92925bdeddd]
class RegisteredName--><g id="elem_RegisteredName"><rect codeLine="5" fill="#F1F1F1" height="125.4844" id="RegisteredName" rx="2.5" ry="2.5" style="stroke:#181818;stroke-width:0.5;" width="374" x="37.5" y="7"/><ellipse cx="162.25" cy="23" fill="#ADD1B2" rx="11" ry="11" style="stroke:#181818;stroke-width:1.0;"/><path d="M165.2188,28.6406 Q164.6406,28.9375 164,29.0781 Q163.3594,29.2344 162.6563,29.2344 Q160.1563,29.2344 158.8281,27.5938 Q157.5156,25.9375 157.5156,22.8125 Q157.5156,19.6875 158.8281,18.0313 Q160.1563,16.375 162.6563,16.375 Q163.3594,16.375 164,16.5313 Q164.6563,16.6875 165.2188,16.9844 L165.2188,19.7031 Q164.5938,19.125 164,18.8594 Q163.4063,18.5781 162.7813,18.5781 Q161.4375,18.5781 160.75,19.6563 Q160.0625,20.7188 160.0625,22.8125 Q160.0625,24.9063 160.75,25.9844 Q161.4375,27.0469 162.7813,27.0469 Q163.4063,27.0469 164,26.7813 Q164.5938,26.5 165.2188,25.9219 L165.2188,28.6406 Z " fill="#000000"/><text fill="#000000" font-family="sans-serif" font-size="14" lengthAdjust="spacing" textLength="116" x="182.75" y="27.8467">RegisteredName</text><line style="stroke:#181818;stroke-width:0.5;" x1="38.5" x2="410.5" y1="39" y2="39"/><ellipse cx="48.5" cy="50" fill="#84BE84" rx="3" ry="3" style="stroke:#038048;stroke-width:1.0;"/><text fill="#000000" font-family="sans-serif" font-size="14" lengthAdjust="spacing" textLength="92" x="57.5" y="55.9951">Value() String</text><ellipse cx="48.5" cy="66.2969" fill="#84BE84" rx="3" ry="3" style="stroke:#038048;stroke-width:1.0;"/><text fill="#000000" font-family="sans-serif" font-size="14" lengthAdjust="spacing" textLength="348" x="57.5" y="72.292">Equals(RegisteredName registeredName) Boolean</text><ellipse cx="48.5" cy="102.8906" fill="#84BE84" rx="3" ry="3" style="stroke:#038048;stroke-width:1.0;"/><text fill="#000000" font-family="sans-serif" font-size="14" lengthAdjust="spacing" textLength="308" x="57.5" y="108.8857">(String topLevelDomain, String domainName)</text><ellipse cx="48.5" cy="119.1875" fill="#84BE84" rx="3" ry="3" style="stroke:#038048;stroke-width:1.0;"/><text fill="#000000" font-family="sans-serif" font-size="14" lengthAdjust="spacing" textLength="165" x="57.5" y="125.1826">(String registeredName)</text><line style="stroke:#181818;stroke-width:1.0;" x1="38.5" x2="179.5" y1="87.7422" y2="87.7422"/><text fill="#000000" font-family="sans-serif" font-size="14" lengthAdjust="spacing" textLength="90" x="179.5" y="92.0889">Constructors</text><line style="stroke:#181818;stroke-width:1.0;" x1="269.5" x2="410.5" y1="87.7422" y2="87.7422"/></g><!--MD5=[b00646fd0275e223e3287f24bd57ed44]
reverse link RegisteredName to DomainName--><g id="link_RegisteredName_DomainName"><path codeLine="13" d="M164.52,142.39 C150.71,158.95 136.25,176.28 123.21,191.91 " fill="none" id="RegisteredName-backto-DomainName" style="stroke:#181818;stroke-width:1.0;"/><polygon fill="#181818" points="173.03,132.2,166.1151,134.2457,165.3439,141.4154,172.2588,139.3697,173.03,132.2" style="stroke:#181818;stroke-width:1.0;"/></g><!--MD5=[6afd404dd84c088a6855a8d89a37bf91]
reverse link RegisteredName to TopLevelDomain--><g id="link_RegisteredName_TopLevelDomain"><path codeLine="14" d="M284.89,142.39 C298.8,158.95 313.36,176.28 326.49,191.91 " fill="none" id="RegisteredName-backto-TopLevelDomain" style="stroke:#181818;stroke-width:1.0;"/><polygon fill="#181818" points="276.33,132.2,277.1234,139.3673,284.0446,141.3916,283.2512,134.2243,276.33,132.2" style="stroke:#181818;stroke-width:1.0;"/></g><!--MD5=[4600e806b3fe88ea80c7bff4aed2f223]
@startuml

!include domain-name.puml
!include top-level-domain.puml

class RegisteredName {
+ Value() String
+ Equals(RegisteredName registeredName) Boolean
- - Constructors - -
+ (String topLevelDomain, String domainName)
+ (String registeredName)
}

RegisteredName *- - DomainName
RegisteredName *- - TopLevelDomain

@enduml

@startuml


class DomainName {
+ Value() String
+ Equals() Boolean
- - Constructors - -
+ (String value)
}


class TopLevelDomain {
+ Value() String
+ Equals(TopLevelDomain topLevelDomain) Boolean
- - Constructors - -
+ (String value)
}


class RegisteredName {
+ Value() String
+ Equals(RegisteredName registeredName) Boolean
- - Constructors - -
+ (String topLevelDomain, String domainName)
+ (String registeredName)
}

RegisteredName *- - DomainName
RegisteredName *- - TopLevelDomain

@enduml

PlantUML version 1.2022.6(Tue Jun 21 17:34:49 UTC 2022)
(GPL source distribution)
Java Runtime: OpenJDK Runtime Environment
JVM: OpenJDK 64-Bit Server VM
Default Encoding: UTF-8
Language: en
Country: null
--></g></svg>