<?xml version="1.0" encoding="UTF-8" standalone="no"?><svg xmlns="http://www.w3.org/2000/svg" xmlns:xlink="http://www.w3.org/1999/xlink" contentStyleType="text/css" height="130px" preserveAspectRatio="none" style="width:168px;height:130px;background:#FFFFFF;" version="1.1" viewBox="0 0 168 130" width="168px" zoomAndPan="magnify"><defs/><g><!--MD5=[69fca0bc48fa0f85c2fa33e8f0105ff1]
class TopLevelDomain--><g id="elem_TopLevelDomain"><rect codeLine="2" fill="#F1F1F1" height="109.1875" id="TopLevelDomain" rx="2.5" ry="2.5" style="stroke:#181818;stroke-width:0.5;" width="147" x="7" y="7"/><ellipse cx="22" cy="23" fill="#ADD1B2" rx="11" ry="11" style="stroke:#181818;stroke-width:1.0;"/><path d="M24.9688,28.6406 Q24.3906,28.9375 23.75,29.0781 Q23.1094,29.2344 22.4063,29.2344 Q19.9063,29.2344 18.5781,27.5938 Q17.2656,25.9375 17.2656,22.8125 Q17.2656,19.6875 18.5781,18.0313 Q19.9063,16.375 22.4063,16.375 Q23.1094,16.375 23.75,16.5313 Q24.4063,16.6875 24.9688,16.9844 L24.9688,19.7031 Q24.3438,19.125 23.75,18.8594 Q23.1563,18.5781 22.5313,18.5781 Q21.1875,18.5781 20.5,19.6563 Q19.8125,20.7188 19.8125,22.8125 Q19.8125,24.9063 20.5,25.9844 Q21.1875,27.0469 22.5313,27.0469 Q23.1563,27.0469 23.75,26.7813 Q24.3438,26.5 24.9688,25.9219 L24.9688,28.6406 Z " fill="#000000"/><text fill="#000000" font-family="sans-serif" font-size="14" lengthAdjust="spacing" textLength="115" x="36" y="27.8467">TopLevelDomain</text><line style="stroke:#181818;stroke-width:0.5;" x1="8" x2="153" y1="39" y2="39"/><ellipse cx="18" cy="50" fill="#84BE84" rx="3" ry="3" style="stroke:#038048;stroke-width:1.0;"/><text fill="#000000" font-family="sans-serif" font-size="14" lengthAdjust="spacing" textLength="91" x="27" y="55.9951">Value() string</text><ellipse cx="18" cy="66.2969" fill="#84BE84" rx="3" ry="3" style="stroke:#038048;stroke-width:1.0;"/><text fill="#000000" font-family="sans-serif" font-size="14" lengthAdjust="spacing" textLength="116" x="27" y="72.292">Equals() boolean</text><ellipse cx="18" cy="102.8906" fill="#84BE84" rx="3" ry="3" style="stroke:#038048;stroke-width:1.0;"/><text fill="#000000" font-family="sans-serif" font-size="14" lengthAdjust="spacing" textLength="89" x="27" y="108.8857">(value string)</text><line style="stroke:#181818;stroke-width:1.0;" x1="8" x2="35.5" y1="87.7422" y2="87.7422"/><text fill="#000000" font-family="sans-serif" font-size="14" lengthAdjust="spacing" textLength="90" x="35.5" y="92.0889">Constructors</text><line style="stroke:#181818;stroke-width:1.0;" x1="125.5" x2="153" y1="87.7422" y2="87.7422"/></g><!--MD5=[60739b78c1fadd4f6e14b2e07faa06b3]
@startuml

class TopLevelDomain {
+ Value() string
+ Equals() boolean
- - Constructors - -
+ (value string)
}

@enduml

PlantUML version 1.2022.6(Tue Jun 21 17:34:49 UTC 2022)
(GPL source distribution)
Java Runtime: OpenJDK Runtime Environment
JVM: OpenJDK 64-Bit Server VM
Default Encoding: UTF-8
Language: en
Country: null
--></g></svg>