<?xml version="1.0" encoding="UTF-8" standalone="no"?><svg xmlns="http://www.w3.org/2000/svg" xmlns:xlink="http://www.w3.org/1999/xlink" contentStyleType="text/css" height="167px" preserveAspectRatio="none" style="width:295px;height:167px;background:#FFFFFF;" version="1.1" viewBox="0 0 295 167" width="295px" zoomAndPan="magnify"><defs/><g><rect height="26.2969" id="_title" style="stroke:#00000000;stroke-width:1.0;fill:none;" width="196" x="45.5" y="5"/><text fill="#000000" font-family="sans-serif" font-size="14" font-weight="bold" lengthAdjust="spacing" textLength="186" x="50.5" y="22.9951">URI - Top Level Domain</text><!--MD5=[69fca0bc48fa0f85c2fa33e8f0105ff1]
class TopLevelDomain--><g id="elem_TopLevelDomain"><rect codeLine="3" fill="#F1F1F1" height="109.1875" id="TopLevelDomain" rx="2.5" ry="2.5" style="stroke:#181818;stroke-width:0.5;" width="274" x="7" y="44.2969"/><ellipse cx="79.25" cy="60.2969" fill="#ADD1B2" rx="11" ry="11" style="stroke:#181818;stroke-width:1.0;"/><path d="M81.5938,55.9688 C80.6563,55.5313 80.0625,55.3906 79.1875,55.3906 C76.5625,55.3906 74.5625,57.4688 74.5625,60.1875 L74.5625,61.3125 C74.5625,63.8906 76.6719,65.7813 79.5625,65.7813 C80.7813,65.7813 81.9375,65.4844 82.6875,64.9375 C83.2656,64.5313 83.5938,64.0781 83.5938,63.6875 C83.5938,63.2344 83.2031,62.8438 82.7344,62.8438 C82.5156,62.8438 82.3125,62.9219 82.125,63.1094 C81.6719,63.5938 81.6719,63.5938 81.4844,63.6875 C81.0625,63.9531 80.375,64.0781 79.6094,64.0781 C77.5625,64.0781 76.2656,62.9844 76.2656,61.2813 L76.2656,60.1875 C76.2656,58.4063 77.5156,57.0938 79.25,57.0938 C79.8281,57.0938 80.4375,57.25 80.9063,57.5 C81.3906,57.7813 81.5625,58 81.6563,58.4063 C81.7188,58.8125 81.75,58.9375 81.8906,59.0625 C82.0313,59.2031 82.2656,59.3125 82.4844,59.3125 C82.75,59.3125 83.0156,59.1719 83.1875,58.9531 C83.2969,58.7969 83.3281,58.6094 83.3281,58.1875 L83.3281,56.7656 C83.3281,56.3281 83.3125,56.2031 83.2188,56.0469 C83.0625,55.7813 82.7813,55.6406 82.4844,55.6406 C82.1875,55.6406 81.9844,55.7344 81.7656,56.0469 L81.5938,55.9688 Z " fill="#000000"/><text fill="#000000" font-family="sans-serif" font-size="14" lengthAdjust="spacing" textLength="121" x="99.75" y="65.1436">TopLevelDomain</text><line style="stroke:#181818;stroke-width:0.5;" x1="8" x2="280" y1="76.2969" y2="76.2969"/><ellipse cx="18" cy="87.2969" fill="#84BE84" rx="3" ry="3" style="stroke:#038048;stroke-width:1.0;"/><text fill="#000000" font-family="sans-serif" font-size="14" lengthAdjust="spacing" textLength="95" x="27" y="93.292">Value() string</text><ellipse cx="18" cy="103.5938" fill="#84BE84" rx="3" ry="3" style="stroke:#038048;stroke-width:1.0;"/><text fill="#000000" font-family="sans-serif" font-size="14" lengthAdjust="spacing" textLength="117" x="27" y="109.5889">Equals() boolean</text><ellipse cx="18" cy="140.1875" fill="#84BE84" rx="3" ry="3" style="stroke:#038048;stroke-width:1.0;"/><text fill="#000000" font-family="sans-serif" font-size="14" lengthAdjust="spacing" textLength="248" x="27" y="146.1826">New(value string) TopLevelDomain</text><line style="stroke:#181818;stroke-width:1.0;" x1="8" x2="97.5" y1="125.0391" y2="125.0391"/><text fill="#000000" font-family="sans-serif" font-size="14" lengthAdjust="spacing" textLength="93" x="97.5" y="129.3857">Constructors</text><line style="stroke:#181818;stroke-width:1.0;" x1="190.5" x2="280" y1="125.0391" y2="125.0391"/></g><!--MD5=[182b0d88e8ee30989902fe3a7edeeaf8]
@startuml
title "URI - Top Level Domain"

class TopLevelDomain {
+ Value() string
+ Equals() boolean
- - Constructors - -
+ New(value string) TopLevelDomain
}
@enduml

PlantUML version 1.2022.7beta2(Unknown compile time)
(GPL source distribution)
Java Runtime: Java(TM) SE Runtime Environment
JVM: Java HotSpot(TM) 64-Bit Server VM
Default Encoding: UTF-8
Language: en
Country: US
--></g></svg>