<?xml version="1.0" encoding="UTF-8" standalone="no"?><svg xmlns="http://www.w3.org/2000/svg" xmlns:xlink="http://www.w3.org/1999/xlink" contentStyleType="text/css" height="130px" preserveAspectRatio="none" style="width:394px;height:130px;background:#FFFFFF;" version="1.1" viewBox="0 0 394 130" width="394px" zoomAndPan="magnify"><defs/><g><!--MD5=[69fca0bc48fa0f85c2fa33e8f0105ff1]
class TopLevelDomain--><g id="elem_TopLevelDomain"><rect codeLine="2" fill="#F1F1F1" height="109.1875" id="TopLevelDomain" rx="2.5" ry="2.5" style="stroke:#181818;stroke-width:0.5;" width="373" x="7" y="7"/><ellipse cx="131.75" cy="23" fill="#ADD1B2" rx="11" ry="11" style="stroke:#181818;stroke-width:1.0;"/><path d="M134.7188,28.6406 Q134.1406,28.9375 133.5,29.0781 Q132.8594,29.2344 132.1563,29.2344 Q129.6563,29.2344 128.3281,27.5938 Q127.0156,25.9375 127.0156,22.8125 Q127.0156,19.6875 128.3281,18.0313 Q129.6563,16.375 132.1563,16.375 Q132.8594,16.375 133.5,16.5313 Q134.1563,16.6875 134.7188,16.9844 L134.7188,19.7031 Q134.0938,19.125 133.5,18.8594 Q132.9063,18.5781 132.2813,18.5781 Q130.9375,18.5781 130.25,19.6563 Q129.5625,20.7188 129.5625,22.8125 Q129.5625,24.9063 130.25,25.9844 Q130.9375,27.0469 132.2813,27.0469 Q132.9063,27.0469 133.5,26.7813 Q134.0938,26.5 134.7188,25.9219 L134.7188,28.6406 Z " fill="#000000"/><text fill="#000000" font-family="sans-serif" font-size="14" lengthAdjust="spacing" textLength="115" x="152.25" y="27.8467">TopLevelDomain</text><line style="stroke:#181818;stroke-width:0.5;" x1="8" x2="379" y1="39" y2="39"/><ellipse cx="18" cy="50" fill="#84BE84" rx="3" ry="3" style="stroke:#038048;stroke-width:1.0;"/><text fill="#000000" font-family="sans-serif" font-size="14" lengthAdjust="spacing" textLength="92" x="27" y="55.9951">Value() String</text><ellipse cx="18" cy="66.2969" fill="#84BE84" rx="3" ry="3" style="stroke:#038048;stroke-width:1.0;"/><text fill="#000000" font-family="sans-serif" font-size="14" lengthAdjust="spacing" textLength="347" x="27" y="72.292">Equals(TopLevelDomain topLevelDomain) Boolean</text><ellipse cx="18" cy="102.8906" fill="#84BE84" rx="3" ry="3" style="stroke:#038048;stroke-width:1.0;"/><text fill="#000000" font-family="sans-serif" font-size="14" lengthAdjust="spacing" textLength="90" x="27" y="108.8857">(String value)</text><line style="stroke:#181818;stroke-width:1.0;" x1="8" x2="148.5" y1="87.7422" y2="87.7422"/><text fill="#000000" font-family="sans-serif" font-size="14" lengthAdjust="spacing" textLength="90" x="148.5" y="92.0889">Constructors</text><line style="stroke:#181818;stroke-width:1.0;" x1="238.5" x2="379" y1="87.7422" y2="87.7422"/></g><!--MD5=[5dcdccf24d8df7af230d89cf43014445]
@startuml

class TopLevelDomain {
+ Value() String
+ Equals(TopLevelDomain topLevelDomain) Boolean
- - Constructors - -
+ (String value)
}

@enduml

PlantUML version 1.2022.6(Tue Jun 21 17:34:49 UTC 2022)
(GPL source distribution)
Java Runtime: OpenJDK Runtime Environment
JVM: OpenJDK 64-Bit Server VM
Default Encoding: UTF-8
Language: en
Country: null
--></g></svg>